<svg id="Layer_1" data-name="Layer 1" xmlns="http://www.w3.org/2000/svg" viewBox="0 0 106 112"><defs><style>.cls-1{fill:#515050;}.cls-2{fill:#38af4a;}</style></defs><path class="cls-1" d="M16,89.15c2.47-2.4,4-4,4-5.32a1.38,1.38,0,0,0-1.48-1.54,2.4,2.4,0,0,0-1.73,1l-.9-.89A3.63,3.63,0,0,1,18.81,81a2.6,2.6,0,0,1,2.81,2.73c0,1.59-1.46,3.22-3.24,5.07.47,0,1.06-.09,1.5-.09h2.18v1.37H16Z"/><path class="cls-1" d="M23.25,85.6c0-3,1.18-4.59,3-4.59s3,1.58,3,4.59-1.18,4.66-3,4.66S23.25,88.61,23.25,85.6Zm4.51,0c0-2.52-.62-3.33-1.48-3.33s-1.49.81-1.49,3.33S25.41,89,26.28,89,27.76,88.12,27.76,85.6Z"/><path class="cls-1" d="M30.43,85.6c0-3,1.18-4.59,3-4.59s3,1.58,3,4.59-1.18,4.66-3,4.66S30.43,88.61,30.43,85.6Zm4.51,0c0-2.52-.62-3.33-1.48-3.33S32,83.08,32,85.6,32.59,89,33.46,89,34.94,88.12,34.94,85.6Z"/><path class="cls-1" d="M40,86.05H37.52V84.88H40V82.23h1.22v2.65h2.5v1.17h-2.5v2.66H40Z"/><path class="cls-1" d="M48.19,80.93h2.45c2.8,0,4.46,1.51,4.46,4.54s-1.66,4.62-4.38,4.62H48.19Zm2.34,7.84c1.84,0,2.9-1,2.9-3.3s-1.06-3.22-2.9-3.22h-.71v6.52Z"/><path class="cls-1" d="M56.35,86.66A3.35,3.35,0,0,1,59.52,83c1.86,0,2.84,1.35,2.84,3.27a3.85,3.85,0,0,1-.07.78H57.92A2,2,0,0,0,60,89a3,3,0,0,0,1.6-.5l.55,1a4.24,4.24,0,0,1-2.36.75A3.32,3.32,0,0,1,56.35,86.66ZM61,86c0-1.06-.47-1.7-1.42-1.7A1.72,1.72,0,0,0,57.91,86Z"/><path class="cls-1" d="M63.22,89.3l.75-1a3,3,0,0,0,1.9.77c.75,0,1.1-.35,1.1-.82s-.74-.84-1.48-1.12c-.9-.34-1.93-.85-1.93-2s1-2.06,2.5-2.06a3.68,3.68,0,0,1,2.29.83l-.74,1a2.53,2.53,0,0,0-1.51-.6c-.69,0-1,.33-1,.76s.7.75,1.44,1c.93.34,2,.79,2,2.07s-.94,2.14-2.68,2.14A4.31,4.31,0,0,1,63.22,89.3Z"/><path class="cls-1" d="M69.75,81.09a1,1,0,1,1,1,.91A.92.92,0,0,1,69.75,81.09Zm.19,2.12h1.61v6.88H69.94Z"/><path class="cls-1" d="M73.13,91.34a1.76,1.76,0,0,1,1-1.47v-.05a1.32,1.32,0,0,1-.62-1.15,1.67,1.67,0,0,1,.77-1.29v0a2.28,2.28,0,0,1-.91-1.82A2.5,2.5,0,0,1,76.07,83a3.11,3.11,0,0,1,1,.17h2.46v1.2H78.3a1.82,1.82,0,0,1,.39,1.15,2.35,2.35,0,0,1-2.62,2.35,2.64,2.64,0,0,1-.93-.18.8.8,0,0,0-.33.66c0,.38.28.62,1.11.62h1.23c1.64,0,2.52.51,2.52,1.7,0,1.35-1.43,2.42-3.67,2.42C74.36,93.13,73.13,92.54,73.13,91.34Zm5-.37c0-.53-.43-.69-1.21-.69H76a4.12,4.12,0,0,1-.93-.09,1.11,1.11,0,0,0-.53.9c0,.63.67,1,1.75,1S78.11,91.56,78.11,91Zm-.84-5.46a1.2,1.2,0,1,0-2.39,0,1.21,1.21,0,1,0,2.39,0Z"/><path class="cls-1" d="M80.88,83.21H82.2l.13.93h0A3.23,3.23,0,0,1,84.63,83c1.48,0,2.12,1,2.12,2.74v4.31H85.14V86c0-1.13-.33-1.56-1.07-1.56a2.15,2.15,0,0,0-1.57.86v4.81H80.88Z"/><path class="cls-1" d="M31.72,97.73h5.51V99.1H33.34v2.34h3.3v1.37h-3.3v2.71h4v1.37H31.72Z"/><path class="cls-1" d="M39.93,103.3l-2-3.29h1.74l.76,1.3c.2.39.42.78.63,1.16h.06c.17-.38.36-.77.54-1.16l.65-1.3h1.67l-2,3.47,2.18,3.41H42.35l-.84-1.36c-.23-.4-.45-.83-.69-1.22h-.06c-.2.39-.4.81-.61,1.22l-.73,1.36H37.75Z"/><path class="cls-1" d="M45.31,100h1.32l.13.73h0a3.32,3.32,0,0,1,2.07-.9c1.72,0,2.71,1.38,2.71,3.5,0,2.36-1.41,3.72-2.94,3.72a2.76,2.76,0,0,1-1.77-.76l.05,1.14v2.17H45.31Zm4.61,3.35c0-1.37-.45-2.19-1.49-2.19a2.2,2.2,0,0,0-1.51.78v3.2a2.16,2.16,0,0,0,1.38.57C49.22,105.72,49.92,104.92,49.92,103.36Z"/><path class="cls-1" d="M52.75,103.46a3.35,3.35,0,0,1,3.17-3.62c1.86,0,2.85,1.35,2.85,3.27a4.75,4.75,0,0,1-.07.78H54.33a2,2,0,0,0,2,1.92,3,3,0,0,0,1.59-.5l.55,1a4.27,4.27,0,0,1-2.36.75A3.32,3.32,0,0,1,52.75,103.46Zm4.62-.67c0-1.05-.47-1.7-1.41-1.7a1.73,1.73,0,0,0-1.65,1.7Z"/><path class="cls-1" d="M60.3,100h1.33l.12,1.23h0a2.35,2.35,0,0,1,2-1.4,1.84,1.84,0,0,1,.78.14l-.28,1.4a2.25,2.25,0,0,0-.71-.11c-.55,0-1.21.38-1.62,1.42v4.2H60.3Z"/><path class="cls-1" d="M65.77,104.57v-3.28h-1v-1.21l1.06-.07L66,98.13h1.34V100h1.75v1.28H67.38v3.28c0,.81.31,1.2,1,1.2a2.09,2.09,0,0,0,.71-.15l.28,1.19a4.62,4.62,0,0,1-1.41.25C66.36,107.06,65.77,106.05,65.77,104.57Z"/><path class="cls-1" d="M69.76,106.1l.75-1a3,3,0,0,0,1.9.77c.75,0,1.1-.35,1.1-.82s-.74-.84-1.48-1.12c-.9-.34-1.93-.85-1.93-2s1-2.06,2.5-2.06a3.68,3.68,0,0,1,2.29.83l-.74,1a2.53,2.53,0,0,0-1.51-.6c-.69,0-1,.33-1,.76s.7.75,1.44,1c.93.35,2,.8,2,2.08s-.93,2.14-2.67,2.14A4.31,4.31,0,0,1,69.76,106.1Z"/><path class="cls-1" d="M40.51,41.68a15.6,15.6,0,0,1,8-5.89c-2.61-2.13-4-4.73-3.51-8.08a7.92,7.92,0,0,1,3.23-5.34,8.12,8.12,0,0,1,11,1.31c3.08,3.62,2.5,8.2-1.62,12.09a15.67,15.67,0,0,1,7.92,5.91,8.69,8.69,0,0,0,.5-3c.06-.85.4-1.28,1.29-1.28H82.37c.87,0,1.29.39,1.28,1.27,0,1.15,0,2.3,0,3.45a1.21,1.21,0,0,1-.9,1.3c-1.37.54-3,.78-4,1.74s-.86,2.74-1.63,3.9c-1.33,2-1.12,3.75,0,5.74s.91,1.93-.6,3.44-2.87,2.83-4.27,4.28a1.38,1.38,0,0,1-2,.33c-2.43-1.61-4.85-1.83-7.28,0a1.08,1.08,0,0,1-.46.18c-2.47.28-3.49,1.9-4.12,4.12-.53,1.91-.67,1.87-2.7,1.87s-4,0-6.05,0c-.92,0-1.56-.24-1.75-1.15-.58-2.8-2-4.71-5-5.11a.48.48,0,0,1-.22-.12c-2.17-1.67-4.33-1.37-6.48,0-1.06.69-1.85.42-2.68-.48-1.45-1.57-3-3.06-4.53-4.54-.65-.63-.92-1.26-.41-2.06,1.54-2.38,1.91-4.75.06-7.16a.93.93,0,0,1-.18-.45c-.31-2.56-1.93-3.77-4.3-4.24a2,2,0,0,1-1.75-2.58,13.06,13.06,0,0,0,0-2.34c0-1.08.45-1.45,1.49-1.45q7.35,0,14.69,0c1,0,1.42.37,1.46,1.37A8.4,8.4,0,0,0,40.51,41.68ZM25.66,39.43c-.43,0-1.23-.41-1.24.43s-.59,1.84.77,2.23c.95.27,1.84.73,2.77,1a2,2,0,0,1,1.48,1.6,14.84,14.84,0,0,0,2,5,3.66,3.66,0,0,1,.15,4.08c-1.23,2.48-1.15,2.53.78,4.45.9.9,1.7,2.24,2.77,2.53s2.39-.83,3.58-1.36a2,2,0,0,1,2.08.1,8.87,8.87,0,0,0,3.31,1.58,6,6,0,0,1,5.34,5.3c.12.64.55.68,1.08.67,1.65,0,3.29,0,4.94,0,.67,0,1-.15,1.25-.82.27-.9.71-1.75,1-2.65A2.1,2.1,0,0,1,59.43,62a13.05,13.05,0,0,0,4.78-1.87A3.87,3.87,0,0,1,68.63,60C70.9,61.1,71,61,72.76,59.19c.93-.93,2.3-1.75,2.62-2.86S74.51,54,74,52.75a2.44,2.44,0,0,0-.14-.34A1.42,1.42,0,0,1,74,50.9a23.24,23.24,0,0,0,2.68-6.45,1.54,1.54,0,0,1,1.09-1.2c1.08-.38,2.13-.83,3.21-1.22s.59-1.45.65-2.2-.68-.4-1-.4c-3.9,0-7.81,0-11.72,0-.71,0-1,.16-1.06.93a14.92,14.92,0,0,1-29.61,0c-.09-.79-.4-.91-1.09-.89-2,0-4,0-5.92,0S27.51,39.38,25.66,39.43Zm34.1,8.37a3.84,3.84,0,0,0,4.14-2.3,3.62,3.62,0,0,1,.27-.41,1.4,1.4,0,0,0,0-1.86,13.16,13.16,0,0,0-21.29-1.34c-2,2.48-1.87,1.92-.08,4.55a2.74,2.74,0,0,0,2.65,1.34c2.5-.12,5,0,7.52,0A63.85,63.85,0,0,1,59.76,47.8ZM46.86,28.91A6.17,6.17,0,1,0,53,22.79,6.18,6.18,0,0,0,46.86,28.91ZM59,49.75H46.93C50.28,52.06,56.56,51.79,59,49.75Z"/><path class="cls-2" d="M33.51,25.61a21,21,0,0,1,.6-2.23.91.91,0,0,0-.39-1.23c-.57-.4-1.1-.86-1.63-1.31a1.17,1.17,0,0,1-.47-1.31,1.19,1.19,0,0,1,1.17-.91.57.57,0,0,1,.13,0c2.12.31,3.33-.6,3.73-2.71a1.24,1.24,0,0,1,2.41,0c.37,2.14,1.61,3,3.73,2.72a1.15,1.15,0,0,1,1.26.79,1.13,1.13,0,0,1-.53,1.49c-1.9,1-2.35,2.43-1.41,4.38a1.16,1.16,0,0,1-.47,1.52,1.12,1.12,0,0,1-1.48-.1c-1.56-1.52-3-1.45-4.63,0C34.67,27.44,33.55,26.82,33.51,25.61Zm4.32-7.2a2.24,2.24,0,0,1-2.82,2c.34.74,1.13.91,1.3,1.6s-.29,1.25-.19,2c.93-.67,1.8-1.33,2.91-.43a.28.28,0,0,0,.44-.33c-.44-1.26.4-1.95,1.23-2.77C39,20.76,38.26,19.84,37.83,18.41Z"/><path class="cls-2" d="M53,7.81a1.13,1.13,0,0,1,1,.45,1.51,1.51,0,0,1,.33.64c.33,2.09,1.6,2.82,3.6,2.59a1.15,1.15,0,0,1,1.34.84,1.2,1.2,0,0,1-.56,1.49c-1.86,1-2.34,2.38-1.4,4.29a1.25,1.25,0,0,1-2,1.43c-1.53-1.5-3-1.42-4.5,0a1.14,1.14,0,0,1-1.58.07,1.16,1.16,0,0,1-.38-1.54c1-1.93.37-3.28-1.43-4.28a1.2,1.2,0,0,1-.53-1.5,1.18,1.18,0,0,1,1.24-.82,4,4,0,0,1,.49,0,2.43,2.43,0,0,0,3.08-2.24A1.47,1.47,0,0,1,53,7.81Zm-2.86,5.6c1.32.85,1.88,1.87,1,3.38,1.22-.82,2.36-1.21,3.71,0-1-1.64,0-2.55,1-3.45a2.37,2.37,0,0,1-2.91-2C52.69,13,51.68,13.46,50.12,13.41Z"/><path class="cls-2" d="M72.41,25.77a1.18,1.18,0,0,1-1.72,1.09,11.09,11.09,0,0,1-1.87-1.18,1.08,1.08,0,0,0-1.52,0c-.55.43-1.17.76-1.76,1.14a1.1,1.1,0,0,1-1.27-.05,1.05,1.05,0,0,1-.51-1.28c1-2.06.62-3.62-1.48-4.71a1.05,1.05,0,0,1-.41-1.31,1.08,1.08,0,0,1,1.19-.86c2.16.25,3.45-.6,3.83-2.79a1.23,1.23,0,0,1,2.37,0c.37,2.23,1.7,3,3.83,2.78a1.06,1.06,0,0,1,1.15.75,1.06,1.06,0,0,1-.3,1.35c-2.08,1.12-2.6,2.69-1.56,4.79A1,1,0,0,1,72.41,25.77ZM71,20.49c-1.73.29-2.5-.63-3-2.06-.28,1.7-1.31,2.19-2.93,2,1.74,1.73,1.74,1.73,1,3.73,1.29-1,2.47-1.46,3.75-.19C69.16,22.38,69.67,21.35,71,20.49Z"/></svg>