<svg id="Layer_1" data-name="Layer 1" xmlns="http://www.w3.org/2000/svg" viewBox="0 0 106 112"><defs><style>.cls-1{fill:#38af4a;}.cls-2{fill:#515050;}.cls-3{fill:#fff;}</style></defs><path class="cls-1" d="M72.64,57.86H72.2v.08a2.71,2.71,0,0,0,.16.77,2.63,2.63,0,0,0,.48.68l3.86,3.86a.87.87,0,0,0,.2.16s.08,0,.16.08l.16,0c.08,0,.12,0,.16,0a.87.87,0,0,0,.2-.12s.12-.08.16-.12C79,62,80.31,60.71,81.56,59.39a2.44,2.44,0,0,0,.52-.81,2.35,2.35,0,0,0,.16-.92,2.75,2.75,0,0,0-.2-1,1.9,1.9,0,0,0-.56-.81,2.48,2.48,0,0,0-1.73-.72,2.43,2.43,0,0,0-1.73.72,7.65,7.65,0,0,0-.8.81l-.08.08h0l0,.08v-.12h0l0,.08v0l0-.12h0v.12l0-.12,0,.08,0-.08h0l0,.08,0-.08v0h0v0l-.08-.08-.84-.85a2.35,2.35,0,0,0-.77-.48,2.15,2.15,0,0,0-.88-.16,2.37,2.37,0,0,0-1,.24,3.45,3.45,0,0,0-.64.4,2.34,2.34,0,0,0-.64.89,2.91,2.91,0,0,0-.2,1.2h.92a3.11,3.11,0,0,1,.08-.64,1.38,1.38,0,0,1,.32-.64,1.71,1.71,0,0,1,.61-.41,1.52,1.52,0,0,1,.68-.16,1.11,1.11,0,0,1,.52.12,1.86,1.86,0,0,1,.52.37c.29.24.53.52.81.76a1.74,1.74,0,0,0,.28.24.31.31,0,0,0,.2.08.52.52,0,0,0,.4,0,1.33,1.33,0,0,0,.24-.12.48.48,0,0,0,.2-.2c.24-.24.49-.52.77-.76A1.55,1.55,0,0,1,79.83,56,1.57,1.57,0,0,1,81,56.5a1.52,1.52,0,0,1,.36.52,1.56,1.56,0,0,1,0,1.2,2.58,2.58,0,0,1-.32.53c-1.25,1.28-2.53,2.53-3.82,3.81l0,0h0l.08.12,0-.12h0l.08.12,0-.12.08.24V62.6h-.08l.08.24v0l.08-.24h-.08v.24l.08-.24,0,.16.08-.12h0l0,.16.08-.12h0l0,0-3.86-3.85a2.4,2.4,0,0,1-.32-.45.79.79,0,0,1-.08-.4v-.08Z"/><path class="cls-1" d="M72.78,12.57h-.44v.08a2.58,2.58,0,0,0,.16.76,2.86,2.86,0,0,0,.48.69L76.84,18a.87.87,0,0,0,.2.16s.08,0,.16.08.12,0,.16,0,.12,0,.16,0a.87.87,0,0,0,.2-.12s.12-.08.16-.12c1.29-1.28,2.57-2.53,3.82-3.85a2.65,2.65,0,0,0,.52-.81,2.35,2.35,0,0,0,.16-.92,2.8,2.8,0,0,0-.2-1,1.93,1.93,0,0,0-.56-.8,2.48,2.48,0,0,0-1.73-.72,2.41,2.41,0,0,0-1.73.72,7.55,7.55,0,0,0-.8.8l-.08.08h0l0,.08v-.12h0l0,.08v0l0-.12h0v.12l0-.12,0,.08,0-.08h0l0,.08,0-.08v0h0v0l-.08-.08-.85-.84a2.21,2.21,0,0,0-.76-.48,2.15,2.15,0,0,0-.88-.16,2.34,2.34,0,0,0-1,.24,3.45,3.45,0,0,0-.64.4,2.39,2.39,0,0,0-.64.88,3,3,0,0,0-.2,1.21h.92a3.11,3.11,0,0,1,.08-.64,1.37,1.37,0,0,1,.32-.65,1.74,1.74,0,0,1,.6-.4,1.59,1.59,0,0,1,.69-.16,1.11,1.11,0,0,1,.52.12,2,2,0,0,1,.52.36c.28.24.52.52.81.77a1.74,1.74,0,0,0,.28.24.31.31,0,0,0,.2.08.52.52,0,0,0,.4,0,1.33,1.33,0,0,0,.24-.12.48.48,0,0,0,.2-.2,9.32,9.32,0,0,1,.77-.77A1.58,1.58,0,0,1,80,10.72a1.62,1.62,0,0,1,1.13.48,1.52,1.52,0,0,1,.36.52,1.7,1.7,0,0,1,.12.61,1.61,1.61,0,0,1-.12.6,2.27,2.27,0,0,1-.32.52c-1.25,1.29-2.54,2.53-3.82,3.82l0,0h0l.08.12,0-.12h0l.08.12,0-.12.08.24v-.24h-.08l.08.24v0l.08-.24H77.4v.24l.08-.24,0,.16.08-.12h0l0,.16.08-.12h0l0,0-3.86-3.86a2.38,2.38,0,0,1-.32-.44.79.79,0,0,1-.08-.4v-.08Z"/><path class="cls-1" d="M48.56,8.61h-.44v.08a2.58,2.58,0,0,0,.16.76,2.63,2.63,0,0,0,.48.68L52.62,14a.87.87,0,0,0,.2.16s.08,0,.16.08.12,0,.16,0,.12,0,.16,0a.87.87,0,0,0,.2-.12s.12-.08.17-.12c1.28-1.28,2.57-2.53,3.81-3.86a2.5,2.5,0,0,0,.52-.8,2.18,2.18,0,0,0,.17-.92,2.82,2.82,0,0,0-.21-1,1.93,1.93,0,0,0-.56-.8,2.46,2.46,0,0,0-1.73-.72A2.39,2.39,0,0,0,54,6.64a7.65,7.65,0,0,0-.81.8l-.08.08h0l0,.08V7.48h0l0,.08v0l0-.12h0v.12l0-.12,0,.08,0-.08h0l0,.08,0-.08v0h0v0l-.08-.08-.84-.84a2.35,2.35,0,0,0-1.65-.64,2.29,2.29,0,0,0-1,.24,3.54,3.54,0,0,0-.65.4,2.39,2.39,0,0,0-.64.88,3,3,0,0,0-.2,1.21H49A3.3,3.3,0,0,1,49.08,8a1.39,1.39,0,0,1,.33-.64,1.74,1.74,0,0,1,.6-.4,1.52,1.52,0,0,1,.68-.16,1.11,1.11,0,0,1,.52.12,2.07,2.07,0,0,1,.53.36c.28.24.52.52.8.77a1.74,1.74,0,0,0,.28.24.31.31,0,0,0,.2.08.52.52,0,0,0,.4,0,2,2,0,0,0,.25-.12.48.48,0,0,0,.2-.2c.24-.25.48-.53.76-.77a1.56,1.56,0,0,1,2.25,0,1.52,1.52,0,0,1,.36.52,1.66,1.66,0,0,1,.12.61,1.61,1.61,0,0,1-.12.6,2.27,2.27,0,0,1-.32.52c-1.25,1.29-2.53,2.53-3.82,3.82l0,0h0l.08.12,0-.12h0l.08.12,0-.12.08.24v-.24H53.1l.08.24v0l.08-.24h-.08v.24l.08-.24,0,.16.08-.12h0l0,.16.08-.12h0l0,0L49.41,9.53a2.5,2.5,0,0,1-.33-.44.79.79,0,0,1-.08-.4V8.61Z"/><path class="cls-2" d="M63.4,82.8a2.36,2.36,0,0,1,.9-.6,2.58,2.58,0,0,1,2,0,1.79,1.79,0,0,1,.7.5,2,2,0,0,1,.4.8,3.08,3.08,0,0,1,.1,1v4.1H66.2V84.5a1.49,1.49,0,0,0-.3-1,1.27,1.27,0,0,0-.9-.4,1.88,1.88,0,0,0-.8.2,1.34,1.34,0,0,0-.7.6v4.7H62V79.3h1.4Z"/><path class="cls-2" d="M69.2,82.9a3.54,3.54,0,0,1,2.6-1,3,3,0,0,1,1,.2,1.79,1.79,0,0,1,.7.5,2,2,0,0,1,.4.8,3,3,0,0,1,.2,1v4.1h-.6a.37.37,0,0,1-.3-.1c-.1,0-.1-.1-.2-.2l-.1-.5c-.2.1-.3.3-.5.4s-.3.2-.5.3-.4.1-.5.2-.4.1-.6.1a1.48,1.48,0,0,1-.7-.1l-.6-.3a1,1,0,0,1-.4-.5A2,2,0,0,1,69,87a1.85,1.85,0,0,1,.2-.7,1.44,1.44,0,0,1,.7-.6c.4-.2.7-.3,1.2-.5a9,9,0,0,1,1.8-.2v-.4a1.33,1.33,0,0,0-.3-1c-.4-.5-.6-.6-1-.6a1.48,1.48,0,0,0-.7.1c-.2.1-.3.1-.5.2a.77.77,0,0,0-.3.2.37.37,0,0,1-.3.1c-.1,0-.2,0-.2-.1s-.1-.1-.2-.2Zm3.5,2.7c-.5,0-.9.1-1.2.1s-.6.1-.8.2-.4.2-.4.3-.1.3-.1.4,0,.3.1.4.1.2.2.3.2.1.3.2.2,0,.4,0a2,2,0,0,0,.9-.2,1.34,1.34,0,0,0,.7-.6V85.6Z"/><path class="cls-2" d="M77.2,83a6.47,6.47,0,0,1,.9-.8,2.13,2.13,0,0,1,1.2-.3,3,3,0,0,1,1,.2c.3.1.5.4.8.6a3.13,3.13,0,0,1,.5,1,5.9,5.9,0,0,1,.2,1.4,5.07,5.07,0,0,1-.2,1.3,3.7,3.7,0,0,1-.5,1.1,2.18,2.18,0,0,1-.9.7,2,2,0,0,1-1.1.3,3,3,0,0,1-1-.2,1.79,1.79,0,0,1-.7-.5v2.7H76V82h.8c.2,0,.3.1.4.3Zm0,3.8a2.65,2.65,0,0,0,.6.5,1.7,1.7,0,0,0,.7.1,1.43,1.43,0,0,0,1.2-.6,2.86,2.86,0,0,0,.4-1.7,3.08,3.08,0,0,0-.1-1,4.88,4.88,0,0,0-.3-.7,1,1,0,0,0-.5-.4h-.4a2.92,2.92,0,0,0-.9.2c-.3.1-.5.4-.7.6Z"/><path class="cls-2" d="M84.5,83a6.47,6.47,0,0,1,.9-.8,2.13,2.13,0,0,1,1.2-.3,3,3,0,0,1,1,.2c.3.1.5.4.8.6a3.13,3.13,0,0,1,.5,1,5.9,5.9,0,0,1,.2,1.4,5.07,5.07,0,0,1-.2,1.3,3.7,3.7,0,0,1-.5,1.1,2.18,2.18,0,0,1-.9.7,2,2,0,0,1-1.1.3,3,3,0,0,1-1-.2,1.79,1.79,0,0,1-.7-.5v2.7H83.3V82H84c.2,0,.3.1.4.3Zm.1,3.8a2.65,2.65,0,0,0,.6.5,1.7,1.7,0,0,0,.7.1,1.43,1.43,0,0,0,1.2-.6,2.86,2.86,0,0,0,.4-1.7,3.08,3.08,0,0,0-.1-1,4.88,4.88,0,0,0-.3-.7,1,1,0,0,0-.5-.4h-.4a2.92,2.92,0,0,0-.9.2c-.3.1-.5.4-.7.6Z"/><path class="cls-2" d="M96.2,82l-3.5,8.2a.22.22,0,0,1-.2.2.37.37,0,0,1-.3.1h-1l1.2-2.6-2.6-6H91a.37.37,0,0,1,.3.1c.1.1.1.1.1.2l1.5,3.6c0,.1.1.2.1.3s.1.2.1.3c0-.1.1-.2.1-.3s.1-.2.1-.3l1.5-3.6c0-.1.1-.1.1-.2s.1-.1.2-.1h1.1Z"/><path class="cls-2" d="M28.5,99.3a.1.1,0,0,1-.1.1h-.2c-.1,0-.1,0-.2-.1s-.2-.1-.3-.2-.2-.1-.4-.2-.3-.1-.6-.1a2.35,2.35,0,0,0-.8.2c-.3.1-.4.3-.6.4a1.49,1.49,0,0,0-.3.7,2.77,2.77,0,0,0-.1.9,3.08,3.08,0,0,0,.1,1,4.88,4.88,0,0,0,.3.7,1,1,0,0,0,.5.4,1.45,1.45,0,0,0,.7.2c.3,0,.5,0,.6-.1s.3-.1.4-.2.2-.1.3-.2a.31.31,0,0,1,.2-.1.37.37,0,0,1,.3.1l.4.5-.5.5c-.2.2-.4.2-.6.3a6.37,6.37,0,0,1-.7.2c-.2,0-.5.1-.7.1a3.59,3.59,0,0,1-1.1-.2,4.7,4.7,0,0,1-.9-.6,2.07,2.07,0,0,1-.6-1,5.9,5.9,0,0,1-.2-1.4,5.07,5.07,0,0,1,.2-1.3,1.7,1.7,0,0,1,.6-1,3.59,3.59,0,0,1,1-.7,2.74,2.74,0,0,1,1.3-.2,3.73,3.73,0,0,1,1.2.2,2.84,2.84,0,0,1,.9.6Z"/><path class="cls-2" d="M35.6,98.1v6.4h-.8a.27.27,0,0,1-.3-.3l-.1-.6-.4.4a2.19,2.19,0,0,1-.5.3c-.2.1-.3.1-.5.2a1.27,1.27,0,0,1-.6.1,2,2,0,0,1-.9-.2,1.79,1.79,0,0,1-.7-.5,2,2,0,0,1-.4-.8,3.08,3.08,0,0,1-.1-1V98h1.4v4.1a1.49,1.49,0,0,0,.3,1,1.27,1.27,0,0,0,.9.4,1.88,1.88,0,0,0,.8-.2,1.34,1.34,0,0,0,.7-.6V98h1.2Z"/><path class="cls-2" d="M41.3,99.2a.1.1,0,0,1-.1.1H41c-.1,0-.1,0-.2-.1a.37.37,0,0,0-.3-.1c-.1,0-.2-.1-.4-.1h-.5a.9.9,0,0,0-.5.1c-.1,0-.3.1-.3.2s-.2.2-.2.3a.37.37,0,0,0-.1.3c0,.2,0,.3.1.4a1.38,1.38,0,0,0,.4.3c.2.1.3.1.5.2s.4.1.6.2.4.1.6.2a2.19,2.19,0,0,1,.5.3,1,1,0,0,1,.4.5,1.48,1.48,0,0,1,.1.7,1.88,1.88,0,0,1-.2.8,1.79,1.79,0,0,1-.5.7,2,2,0,0,1-.8.4,3.59,3.59,0,0,1-1.1.2,1.27,1.27,0,0,1-.6-.1,1.42,1.42,0,0,1-.6-.2,1.69,1.69,0,0,0-.5-.2,1.38,1.38,0,0,1-.4-.3l.3-.5a.1.1,0,0,1,.1-.1c.1,0,.1-.1.2-.1a.37.37,0,0,1,.3.1c.1.1.2.1.3.2s.3.1.4.2.4.1.6.1a.75.75,0,0,0,.5-.1c.1-.1.3-.1.4-.2s.2-.2.2-.3.1-.2.1-.3,0-.3-.1-.4a1.38,1.38,0,0,0-.4-.3c-.2-.1-.3-.1-.5-.2s-.4-.1-.6-.2-.4-.1-.6-.2a2.19,2.19,0,0,1-.5-.3,1,1,0,0,1-.4-.5,1.48,1.48,0,0,1-.1-.7,1.45,1.45,0,0,1,.2-.7,2.65,2.65,0,0,1,.5-.6,1.61,1.61,0,0,1,.7-.4,3,3,0,0,1,1-.2,5,5,0,0,1,1.2.2,1.8,1.8,0,0,1,.9.6Z"/><path class="cls-2" d="M45.3,104.6a1.59,1.59,0,0,1-1.2-.4,1.7,1.7,0,0,1-.4-1.3V99.2H43c-.1,0-.1,0-.2-.1s-.1-.1-.1-.2v-.5l1-.2.3-1.9c0-.1.1-.1.1-.2s.1-.1.2-.1H45v2.1h1.8v1H45v3.6a.68.68,0,0,0,.7.7H46c.1,0,.1-.1.2-.1a.1.1,0,0,0,.1-.1h.1c.1,0,.1,0,.2.1l.4.7a2.51,2.51,0,0,1-.7.4A4.4,4.4,0,0,1,45.3,104.6Z"/><path class="cls-2" d="M50.8,98a5.07,5.07,0,0,1,1.3.2,3.59,3.59,0,0,1,1,.7,2.07,2.07,0,0,1,.6,1,5,5,0,0,1,0,2.8,2.42,2.42,0,0,1-.6,1,3.59,3.59,0,0,1-1,.7,2.74,2.74,0,0,1-1.3.2,5.07,5.07,0,0,1-1.3-.2,3.59,3.59,0,0,1-1-.7,2.07,2.07,0,0,1-.6-1,5,5,0,0,1,0-2.8,2.42,2.42,0,0,1,.6-1,3.59,3.59,0,0,1,1-.7A3,3,0,0,1,50.8,98Zm0,5.5a1.49,1.49,0,0,0,1.3-.6,2.67,2.67,0,0,0,.4-1.7,2.86,2.86,0,0,0-.4-1.7,1.43,1.43,0,0,0-1.3-.5,1.49,1.49,0,0,0-1.3.6,2.67,2.67,0,0,0-.4,1.7,2.86,2.86,0,0,0,.4,1.7A1.9,1.9,0,0,0,50.8,103.5Z"/><path class="cls-2" d="M55.5,104.5V98.1h.8c.2,0,.3.1.4.3l.1.6c.1-.1.2-.3.4-.4s.3-.2.4-.3.3-.1.5-.2.3-.1.5-.1a1.27,1.27,0,0,1,.6.1,1.33,1.33,0,0,1,.5.3,1.38,1.38,0,0,1,.3.4c.1.2.2.3.2.5a2.09,2.09,0,0,1,.4-.6,1.76,1.76,0,0,1,.5-.4,1.42,1.42,0,0,1,.6-.2c.2,0,.4-.1.6-.1a2.39,2.39,0,0,1,.9.2,1.79,1.79,0,0,1,.7.5,2,2,0,0,1,.4.8,3.08,3.08,0,0,1,.1,1v4.1H63v-4.1a1.33,1.33,0,0,0-.3-1,1.22,1.22,0,0,0-.9-.3.9.9,0,0,0-.5.1c-.2.1-.3.1-.4.3s-.2.3-.3.4a1.27,1.27,0,0,0-.1.6v4.1H59.2v-4.1a1.33,1.33,0,0,0-.3-1,1.14,1.14,0,0,0-.8-.3,1.45,1.45,0,0,0-.7.2,2.65,2.65,0,0,0-.6.5v4.7H55.5Z"/><path class="cls-2" d="M67.2,101.4a2,2,0,0,0,.2.9,1.61,1.61,0,0,0,.4.7,2.09,2.09,0,0,0,.6.4,2,2,0,0,0,.8.1,1.48,1.48,0,0,0,.7-.1c.2-.1.4-.1.5-.2s.3-.1.4-.2a.5.5,0,0,1,.6,0l.4.5-.5.5c-.2.2-.4.2-.6.3s-.5.1-.7.2-.5.1-.7.1a4.3,4.3,0,0,1-1.2-.2,3,3,0,0,1-1-.7,3,3,0,0,1-.7-1.1,3.42,3.42,0,0,1-.2-1.5,4.3,4.3,0,0,1,.2-1.2,2.07,2.07,0,0,1,.6-1,3.59,3.59,0,0,1,1-.7c0-.2.4-.2.9-.2a3.59,3.59,0,0,1,1.1.2,2.36,2.36,0,0,1,.9.6,3.49,3.49,0,0,1,.6.9,5,5,0,0,1,.2,1.2c0,.2,0,.3-.1.4s-.1.1-.3.1Zm3.2-.9a1.27,1.27,0,0,0-.1-.6,2.19,2.19,0,0,0-.3-.5.85.85,0,0,0-.5-.3,1.27,1.27,0,0,0-.6-.1,1.59,1.59,0,0,0-1.2.4,1.66,1.66,0,0,0-.5,1.2h3.2Z"/><path class="cls-2" d="M74.4,99.2a3.59,3.59,0,0,1,.7-1,1.69,1.69,0,0,1,1-.3h.4c.1,0,.2.1.3.1l-.1,1c0,.1,0,.1-.1.1h-.8a.75.75,0,0,0-.5.1c-.1.1-.3.1-.4.2a1.38,1.38,0,0,0-.3.4c-.1.2-.2.3-.2.5v4H73V97.9h.8a.37.37,0,0,1,.3.1c.1.1.1.1.1.3Z"/><path class="cls-2" d="M81.8,99.2a.1.1,0,0,1-.1.1h-.2c-.1,0-.1,0-.2-.1s-.2-.1-.3-.1-.2-.1-.4-.1-.3-.1-.5-.1a.9.9,0,0,0-.5.1c-.1,0-.3.1-.3.2s-.2.2-.2.3-.1.2-.1.3,0,.3.1.4a1.38,1.38,0,0,0,.4.3c.2.1.3.1.5.2s.4.1.6.2.4.1.6.2a2.19,2.19,0,0,1,.5.3,1,1,0,0,1,.4.5,1.48,1.48,0,0,1,.1.7,1.88,1.88,0,0,1-.2.8,1.79,1.79,0,0,1-.5.7,2,2,0,0,1-.8.4,3.59,3.59,0,0,1-1.1.2,1.27,1.27,0,0,1-.6-.1,1.42,1.42,0,0,1-.6-.2,1.69,1.69,0,0,0-.5-.2,1.38,1.38,0,0,1-.4-.3l.3-.5a.1.1,0,0,1,.1-.1c.1,0,.1-.1.2-.1a.37.37,0,0,1,.3.1c.1.1.2.1.3.2s.3.1.4.2a1.27,1.27,0,0,0,.6.1.75.75,0,0,0,.5-.1c.1-.1.3-.1.4-.2s.2-.2.2-.3.1-.2.1-.3,0-.3-.1-.4a1.38,1.38,0,0,0-.4-.3c-.2-.1-.3-.1-.5-.2s-.4-.1-.6-.2-.4-.1-.6-.2a2.19,2.19,0,0,1-.5-.3,1,1,0,0,1-.4-.5,1.48,1.48,0,0,1-.1-.7,1.45,1.45,0,0,1,.2-.7,2.65,2.65,0,0,1,.5-.6,1.61,1.61,0,0,1,.7-.4,3,3,0,0,1,1-.2,5,5,0,0,1,1.2.2,1.8,1.8,0,0,1,.9.6Z"/><path class="cls-1" d="M24,12.57H23.6v.08a2.58,2.58,0,0,0,.16.76,2.86,2.86,0,0,0,.48.69L28.1,18a.87.87,0,0,0,.2.16s.08,0,.16.08.12,0,.16,0,.13,0,.17,0a.87.87,0,0,0,.2-.12l.16-.12c1.28-1.28,2.57-2.53,3.81-3.85a2.51,2.51,0,0,0,.53-.81,2.35,2.35,0,0,0,.16-.92,2.8,2.8,0,0,0-.2-1,2,2,0,0,0-.57-.8,2.46,2.46,0,0,0-1.72-.72,2.4,2.4,0,0,0-1.73.72,8.73,8.73,0,0,0-.81.8l-.08.08h0l0,.08v-.12h0l0,.08v0l0-.12h0v.12l0-.12,0,.08,0-.08h0l0,.08,0-.08v0h0v0l-.08-.08-.84-.84a2.35,2.35,0,0,0-1.65-.64,2.29,2.29,0,0,0-1,.24,3.45,3.45,0,0,0-.64.4,2.3,2.3,0,0,0-.65.88,3,3,0,0,0-.2,1.21h.93a3.11,3.11,0,0,1,.08-.64,1.37,1.37,0,0,1,.32-.65,1.74,1.74,0,0,1,.6-.4,1.52,1.52,0,0,1,.68-.16,1.15,1.15,0,0,1,.53.12,2,2,0,0,1,.52.36c.28.24.52.52.8.77a1.74,1.74,0,0,0,.28.24.31.31,0,0,0,.2.08.36.36,0,0,0,.2,0,.38.38,0,0,0,.21,0,1.33,1.33,0,0,0,.24-.12.48.48,0,0,0,.2-.2c.24-.25.48-.53.76-.77a1.56,1.56,0,0,1,2.25,0,1.52,1.52,0,0,1,.36.52,1.7,1.7,0,0,1,.12.61,1.61,1.61,0,0,1-.12.6,2.27,2.27,0,0,1-.32.52c-1.24,1.29-2.53,2.53-3.82,3.82l0,0h0l.08.12,0-.12h0l.08.12,0-.12.08.24v-.24h-.08l.08.24v0l.09-.24h-.09v.24l.09-.24-.05.16.09-.12h0l-.05.16.09-.12h0l0,0-3.86-3.86a2.38,2.38,0,0,1-.32-.44.79.79,0,0,1-.08-.4v-.08Z"/><path class="cls-1" d="M24,57.86H23.6v.08a2.71,2.71,0,0,0,.16.77,2.63,2.63,0,0,0,.48.68l3.86,3.86a.87.87,0,0,0,.2.16s.08,0,.16.08l.16,0c.08,0,.13,0,.17,0a.87.87,0,0,0,.2-.12l.16-.12C30.43,62,31.72,60.71,33,59.39a2.32,2.32,0,0,0,.53-.81,2.35,2.35,0,0,0,.16-.92,2.75,2.75,0,0,0-.2-1,1.92,1.92,0,0,0-.57-.81,2.46,2.46,0,0,0-1.72-.72,2.4,2.4,0,0,0-1.73.72,8.85,8.85,0,0,0-.81.81l-.08.08h0l0,.08v-.12h0l0,.08v0l0-.12h0v.12l0-.12,0,.08,0-.08h0l0,.08,0-.08v0h0v0l-.08-.08-.84-.85a2.35,2.35,0,0,0-1.65-.64,2.29,2.29,0,0,0-1,.24,3.45,3.45,0,0,0-.64.4,2.26,2.26,0,0,0-.65.89,2.91,2.91,0,0,0-.2,1.2h.93a3.11,3.11,0,0,1,.08-.64,1.38,1.38,0,0,1,.32-.64,1.76,1.76,0,0,1,.6-.41,1.52,1.52,0,0,1,.68-.16,1.15,1.15,0,0,1,.53.12,1.86,1.86,0,0,1,.52.37c.28.24.52.52.8.76a1.74,1.74,0,0,0,.28.24.31.31,0,0,0,.2.08.36.36,0,0,0,.2,0,.38.38,0,0,0,.21,0,1.33,1.33,0,0,0,.24-.12.48.48,0,0,0,.2-.2c.24-.24.48-.52.76-.76a1.54,1.54,0,0,1,2.25,0,1.52,1.52,0,0,1,.36.52,1.56,1.56,0,0,1,0,1.2,2.58,2.58,0,0,1-.32.53c-1.24,1.28-2.53,2.53-3.82,3.81l0,0h0l.08.12,0-.12h0l.08.12,0-.12.08.24V62.6h-.08l.08.24v0l.09-.24h-.09v.24l.09-.24-.05.16.09-.12h0l-.05.16.09-.12h0l0,0-3.86-3.85a2.4,2.4,0,0,1-.32-.45.79.79,0,0,1-.08-.4v-.08Z"/><path class="cls-2" d="M26.4,31.2c-2.85-.29-3.35-.84-3.22-3.49.09-2,1.48-3.22,3.69-3.22,1.09,0,2,.06,2.78-1.15a2.78,2.78,0,0,1,3.48-.87,3.2,3.2,0,0,1,2.19,3c.09,2.66,0,5.35.29,8A14,14,0,0,0,48.76,45.27a4.6,4.6,0,0,0-.72-.94c-4-2.68-4.82-3.77-6.13-8.68-2.44-.15-4.37-1.3-4.36-4.13,0-2.17,1.61-3.55,4.14-3.77a33.08,33.08,0,0,0,.82-4.84A31,31,0,0,0,42,18.45c-.15-1.24.41-1.73,1.67-1.72,3.5.05,7,0,10.5,0a5.42,5.42,0,0,1,4.64,2.53,2.42,2.42,0,0,0,.95.88c3.37,1.37,4.3,2.71,4.32,6.35,0,.36,0,.73.26.8a18.53,18.53,0,0,1,3.41,2.18,3.79,3.79,0,0,1,.7,2.55c0,2-1.69,3.35-4.2,3.53a24.77,24.77,0,0,1-1.37,3.82,14.35,14.35,0,0,1-2.51,3.25c-.89.9-2,1.56-2.94,2.45,5.66.16,11.4-4.39,12.68-10.24a49.79,49.79,0,0,0,.6-8.49c.08-2.18.64-3.31,2.17-3.89s2.69-.14,4.14,1.58a1.46,1.46,0,0,0,.89.42c.63.06,1.29,0,1.93,0a2.75,2.75,0,0,1,2.7,2,6.52,6.52,0,0,1-.2,3.67c-.28.66-1.63.85-2.45,1.23A70.55,70.55,0,0,1,78.13,39,21.8,21.8,0,0,1,65.87,52.24,2.64,2.64,0,0,0,64,55.13c.09,4.61,0,9.21,0,13.82,0,1.82-.13,1.94-2,1.94H44c-1.91,0-2-.1-2-2.06,0-4.75,0-9.49,0-14.23a2,2,0,0,0-1.32-2.13c-9-4.07-13.68-11.06-14.18-20.9A2.86,2.86,0,0,0,26.4,31.2Zm2.2,0c.19,1.44.27,2.73.53,4A20.38,20.38,0,0,0,41.56,50.42a3.86,3.86,0,0,1,2.62,4c-.07,4.24,0,8.47,0,12.71v1.41H61.85c0-4.81,0-9.51,0-14.2a4,4,0,0,1,2.55-4,29,29,0,0,0,5.82-3.63c4.72-4,6.92-9.34,7.12-15.61H73c-.62,7.71-4.28,13.09-11.64,15.73a1.28,1.28,0,0,0-.63.73c-.76,1.92-1.46,3.86-2.21,5.78-.4,1-1.12,1.16-2,.55s-1.81-1.28-2.64-2a1.17,1.17,0,0,0-1.79,0c-.86.75-1.82,1.4-2.75,2.07-.75.53-1.47.42-1.83-.42A53,53,0,0,1,45.36,48a1.47,1.47,0,0,0-1.06-1.16,16.27,16.27,0,0,1-10.53-11,39.6,39.6,0,0,1-.85-4.59ZM62,32.48c.5-2.32-.6-3.9-2.3-5.25-.35-.28-.6-.72-1-.95a4,4,0,0,0-1.68-.67c-2.39-.07-4.78-.05-7.17,0a2.31,2.31,0,0,0-1.27.34c-4.46,3-4.65,3.38-4.44,8.66v.14a8.94,8.94,0,0,0,8,8.48A8.76,8.76,0,0,0,61.4,37,31.42,31.42,0,0,0,62,32.48ZM44.29,19c-.3,2.4.73,4.19,2.8,4.29,3.42.18,6.85,0,10.27,0,.16-2.52-.88-4.21-2.93-4.3C51.05,18.88,47.66,19,44.29,19ZM33.11,28.85a21,21,0,0,0,0-3.09c-.07-.46-.65-.84-1-1.25-.38.33-1,.6-1.1,1-.23,1-.8,1.23-1.69,1.19-.69,0-1.38,0-2.07,0-1.61,0-1.93.41-1.7,2.16Zm47.43,0c.16-1.81-.13-2.14-1.78-2.15-.65,0-1.29,0-1.93,0-.92,0-1.58-.13-1.8-1.23a1.41,1.41,0,0,0-1.12-.87,1.49,1.49,0,0,0-1,1.07,23.92,23.92,0,0,0,0,3.18ZM53,48.4c.8-1.11,2.07-1.57,2.24-3H50.36Zm-1.78,1.42c-1.76-2.13-1.76-2.13-3.26-1.27l1.13,2.86Zm5.73,1.6,1.13-3c-1.61-.74-1.65-.72-3.23,1.36Zm-15-21.35c-1.42,0-2.16.62-2.14,1.63s.82,1.57,2.14,1.49Zm22.21,3.15c1.37,0,2.13-.54,2.14-1.55s-.75-1.58-2.14-1.58Zm-2.35-7.33a2.89,2.89,0,0,0-2-3.22C59.57,24.15,59.88,24.64,61.76,25.89Z"/><path class="cls-3" d="M62,32.48A31.42,31.42,0,0,1,61.4,37a8.76,8.76,0,0,1-9.26,6.27,8.94,8.94,0,0,1-8-8.48V34.6c-.21-5.28,0-5.67,4.44-8.66a2.31,2.31,0,0,1,1.27-.34c2.39,0,4.78-.06,7.17,0a4,4,0,0,1,1.68.67c.38.23.63.67,1,.95C61.41,28.58,62.51,30.16,62,32.48Zm-9,3.06H49.86c-.85,0-1.24.44-1.27,1.28a4.42,4.42,0,0,0,8.83,0c0-.92-.44-1.35-1.35-1.34S54,35.54,53,35.54Zm-2.24-4.45a2.2,2.2,0,1,0-2.15,2.22A2.16,2.16,0,0,0,50.79,31.09Zm8.84.07a2.2,2.2,0,1,0-2.22,2.15A2.16,2.16,0,0,0,59.63,31.16Z"/><path class="cls-3" d="M44.29,19c3.37,0,6.76-.11,10.14,0,2,.09,3.09,1.78,2.93,4.3-3.42,0-6.85.13-10.27,0C45,23.18,44,21.39,44.29,19Z"/><path class="cls-3" d="M33.11,28.85h-7.6c-.23-1.75.09-2.14,1.7-2.16.69,0,1.38,0,2.07,0,.89,0,1.46-.19,1.69-1.19.09-.39.72-.66,1.1-1,.35.41.93.79,1,1.25A21,21,0,0,1,33.11,28.85Z"/><path class="cls-3" d="M80.54,28.84H72.9a23.92,23.92,0,0,1,0-3.18,1.49,1.49,0,0,1,1-1.07,1.41,1.41,0,0,1,1.12.87c.22,1.1.88,1.27,1.8,1.23.64,0,1.28,0,1.93,0C80.41,26.7,80.7,27,80.54,28.84Z"/><path class="cls-3" d="M53,48.4l-2.63-3h4.87C55.06,46.83,53.79,47.29,53,48.4Z"/><path class="cls-3" d="M51.21,49.82l-2.13,1.59L48,48.55C49.45,47.69,49.45,47.69,51.21,49.82Z"/><path class="cls-3" d="M56.94,51.42l-2.1-1.59c1.58-2.08,1.62-2.1,3.23-1.36Z"/><path class="cls-3" d="M41.9,30.07v3.12c-1.32.08-2.11-.48-2.14-1.49S40.48,30.11,41.9,30.07Z"/><path class="cls-3" d="M64.11,33.22V30.09c1.39,0,2.15.57,2.14,1.58S65.48,33.25,64.11,33.22Z"/><path class="cls-3" d="M61.76,25.89c-1.88-1.25-2.19-1.74-2-3.22A2.89,2.89,0,0,1,61.76,25.89Z"/><path d="M54.05,53.28v2H52v-2Z"/><path d="M54,59.78H52V57.72h2Z"/><path class="cls-2" d="M53,35.54c1,0,2,0,3,0s1.34.42,1.35,1.34a4.42,4.42,0,0,1-8.83,0c0-.84.42-1.28,1.27-1.28Zm-1.68,2.27c1.19,1.35,2.2,1.34,3.26,0Z"/><path class="cls-2" d="M50.79,31.09a2.2,2.2,0,1,1-2.19-2.18A2.16,2.16,0,0,1,50.79,31.09Z"/><path class="cls-2" d="M59.63,31.16a2.2,2.2,0,1,1-2.12-2.25A2.16,2.16,0,0,1,59.63,31.16Z"/><path class="cls-3" d="M51.35,37.81h3.26C53.55,39.15,52.54,39.16,51.35,37.81Z"/><path class="cls-2" d="M10.61,88.2c2.47-2.41,4-4,4-5.33a1.38,1.38,0,0,0-1.48-1.54,2.43,2.43,0,0,0-1.73,1l-.9-.88a3.63,3.63,0,0,1,2.85-1.39,2.61,2.61,0,0,1,2.81,2.74c0,1.58-1.46,3.21-3.24,5.07.47,0,1.06-.09,1.5-.09h2.18v1.36h-6Z"/><path class="cls-2" d="M18.29,87.82h2V82H18.64V81a5.71,5.71,0,0,0,2.05-.73H21.9v7.6h1.75v1.31H18.29Z"/><path class="cls-2" d="M25.09,90.8a1.91,1.91,0,0,0,1.42-1.74l-.08-1.21.62,1a.9.9,0,0,1-.67.25,1,1,0,0,1-1-1,1,1,0,0,1,1.08-1c.76,0,1.2.62,1.2,1.66a3,3,0,0,1-2.18,2.91Z"/><path class="cls-2" d="M28.85,84.64c0-3,1.18-4.59,3-4.59s3,1.59,3,4.59-1.18,4.66-3,4.66S28.85,87.65,28.85,84.64Zm4.51,0c0-2.52-.62-3.32-1.48-3.32s-1.49.8-1.49,3.32S31,88,31.88,88,33.36,87.16,33.36,84.64Z"/><path class="cls-2" d="M36,84.64c0-3,1.18-4.59,3-4.59s3,1.59,3,4.59-1.17,4.66-3,4.66S36,87.65,36,84.64Zm4.51,0c0-2.52-.62-3.32-1.48-3.32s-1.49.8-1.49,3.32.62,3.4,1.49,3.4S40.54,87.16,40.54,84.64Z"/><path class="cls-2" d="M43.21,84.64c0-3,1.18-4.59,3-4.59s3,1.59,3,4.59-1.17,4.66-3,4.66S43.21,87.65,43.21,84.64Zm4.51,0c0-2.52-.62-3.32-1.48-3.32s-1.49.8-1.49,3.32.63,3.4,1.49,3.4S47.72,87.16,47.72,84.64Z"/><path class="cls-2" d="M52.81,85.09h-2.5V83.93h2.5V81.27H54v2.66h2.51v1.16H54v2.66H52.81Z"/></svg>