<svg id="Layer_1" data-name="Layer 1" xmlns="http://www.w3.org/2000/svg" viewBox="0 0 106 112"><defs><style>.cls-1{fill:#515050;}.cls-2{fill:#38af4a;}.cls-3{fill:#fff;}</style></defs><path class="cls-1" d="M32.63,80.93h2.88c2,0,3.54.7,3.54,2.82s-1.51,3-3.48,3H34.25v3.37H32.63Zm2.81,4.49c1.36,0,2-.54,2-1.67s-.71-1.52-2.07-1.52H34.25v3.19Z"/><path class="cls-1" d="M40.64,83.21H42l.12,1.23h.05A2.34,2.34,0,0,1,44.08,83a1.84,1.84,0,0,1,.78.14l-.28,1.4a2.25,2.25,0,0,0-.71-.11c-.55,0-1.21.38-1.62,1.42v4.2H40.64Z"/><path class="cls-1" d="M45.26,86.66a3.29,3.29,0,1,1,3.28,3.6A3.34,3.34,0,0,1,45.26,86.66Zm4.89,0c0-1.38-.61-2.3-1.61-2.3s-1.62.92-1.62,2.3.61,2.28,1.62,2.28S50.15,88,50.15,86.66Z"/><path class="cls-1" d="M51.74,92.8l.3-1.21a1.87,1.87,0,0,0,.59.11c.62,0,.79-.43.79-1.23V83.21H55v7.23C55,91.9,54.49,93,52.86,93A3.09,3.09,0,0,1,51.74,92.8Zm1.5-11.71a1,1,0,0,1,2,0,1,1,0,0,1-2,0Z"/><path class="cls-1" d="M56.63,86.66A3.35,3.35,0,0,1,59.8,83c1.86,0,2.84,1.35,2.84,3.27a3.85,3.85,0,0,1-.07.78H58.21a2,2,0,0,0,2,1.92,3,3,0,0,0,1.6-.5l.55,1a4.19,4.19,0,0,1-2.36.75A3.32,3.32,0,0,1,56.63,86.66ZM61.25,86c0-1.06-.47-1.7-1.41-1.7A1.73,1.73,0,0,0,58.19,86Z"/><path class="cls-1" d="M63.73,86.66A3.4,3.4,0,0,1,67.18,83a3,3,0,0,1,2,.77l-.78,1a1.69,1.69,0,0,0-1.14-.5c-1.11,0-1.88.92-1.88,2.3s.75,2.28,1.82,2.28a2.27,2.27,0,0,0,1.43-.59l.65,1.06a3.39,3.39,0,0,1-2.24.85A3.27,3.27,0,0,1,63.73,86.66Z"/><path class="cls-1" d="M70.75,87.77V84.49h-1V83.28l1.07-.07L71,81.33h1.34v1.88h1.75v1.28H72.37v3.28c0,.81.31,1.2,1,1.2a2.1,2.1,0,0,0,.72-.15L74.33,90a4.5,4.5,0,0,1-1.4.25C71.34,90.26,70.75,89.25,70.75,87.77Z"/><path class="cls-1" d="M20.53,99.1H17.89V97.73H24.8V99.1H22.16v7.79H20.53Z"/><path class="cls-1" d="M25.57,100h1.32l.13,1.23h0a2.35,2.35,0,0,1,2-1.4,1.84,1.84,0,0,1,.78.14l-.28,1.4a2.25,2.25,0,0,0-.71-.11c-.55,0-1.21.38-1.62,1.42v4.2H25.57Z"/><path class="cls-1" d="M30.06,105c0-1.47,1.22-2.24,4.05-2.54,0-.74-.32-1.36-1.25-1.36a3.82,3.82,0,0,0-1.94.68l-.59-1.08a5.39,5.39,0,0,1,2.82-.9c1.72,0,2.57,1.06,2.57,3v4.07H34.4l-.13-.76h0a3.36,3.36,0,0,1-2.14.93A1.93,1.93,0,0,1,30.06,105Zm4.05,0V103.5c-1.87.24-2.49.72-2.49,1.42s.41.87,1,.87A2.17,2.17,0,0,0,34.11,105.05Z"/><path class="cls-1" d="M37.2,103.46a3.4,3.4,0,0,1,3.45-3.62,3,3,0,0,1,2,.77l-.78,1a1.69,1.69,0,0,0-1.14-.5c-1.11,0-1.88.92-1.88,2.3s.75,2.28,1.83,2.28a2.27,2.27,0,0,0,1.42-.59l.65,1.06a3.39,3.39,0,0,1-2.24.85A3.27,3.27,0,0,1,37.2,103.46Z"/><path class="cls-1" d="M44.12,97H45.7v6.17h0L48.3,100h1.76l-2.36,2.8,2.6,4.08H48.55l-1.77-3-1.08,1.24v1.75H44.12Z"/><path class="cls-1" d="M50.92,105c0-1.47,1.22-2.24,4-2.54,0-.74-.32-1.36-1.25-1.36a3.82,3.82,0,0,0-1.94.68l-.59-1.08a5.42,5.42,0,0,1,2.82-.9c1.72,0,2.57,1.06,2.57,3v4.07H55.26l-.13-.76h0a3.36,3.36,0,0,1-2.14.93A1.93,1.93,0,0,1,50.92,105Zm4,0V103.5c-1.87.24-2.49.72-2.49,1.42s.41.87,1,.87A2.17,2.17,0,0,0,55,105.05Z"/><path class="cls-1" d="M60,106.17h0l-.15.72H58.51V97h1.62v2.56l-.05,1.14a3.11,3.11,0,0,1,2-.86c1.72,0,2.71,1.38,2.71,3.5,0,2.36-1.4,3.72-2.93,3.72A2.78,2.78,0,0,1,60,106.17Zm3.15-2.81c0-1.37-.44-2.19-1.49-2.19a2.17,2.17,0,0,0-1.5.78v3.2a2.12,2.12,0,0,0,1.38.57C62.42,105.72,63.12,104.92,63.12,103.36Z"/><path class="cls-1" d="M66.21,97.89a1,1,0,1,1,1,.91A.92.92,0,0,1,66.21,97.89ZM66.4,100H68v6.88H66.4Z"/><path class="cls-1" d="M70.06,105.12V97h1.62v8.2c0,.4.18.54.34.54a.93.93,0,0,0,.26,0l.2,1.21a2.26,2.26,0,0,1-.85.14C70.48,107.06,70.06,106.32,70.06,105.12Z"/><path class="cls-1" d="M73.67,97.89a1,1,0,1,1,1,.91A.92.92,0,0,1,73.67,97.89Zm.19,2.12h1.61v6.88H73.86Z"/><path class="cls-1" d="M77.77,104.57v-3.28h-1v-1.21l1.06-.07L78,98.13h1.34V100h1.75v1.28H79.38v3.28c0,.81.31,1.2,1,1.2a2.1,2.1,0,0,0,.72-.15l.28,1.19a4.62,4.62,0,0,1-1.41.25C78.35,107.06,77.77,106.05,77.77,104.57Z"/><path class="cls-1" d="M82.14,109.57l.29-1.25a1.93,1.93,0,0,0,.5.1,1.45,1.45,0,0,0,1.37-1.18l.13-.43L81.72,100h1.64l1.19,3.37c.2.61.4,1.29.6,2h.06c.17-.64.34-1.32.52-2l1-3.37h1.56l-2.49,7.19c-.57,1.55-1.3,2.51-2.8,2.51A2.52,2.52,0,0,1,82.14,109.57Z"/><path class="cls-1" d="M56.07,20.66h5.29a10.26,10.26,0,1,1,7,11.88v11.3c0,1.08-.33,1.4-1.42,1.4H56.07V46c0,5.84,0,11.68,0,17.51a6.09,6.09,0,0,1-4.54,6,7,7,0,0,1-1.76.22q-11.1,0-22.19,0a6.11,6.11,0,0,1-6.29-6.3q0-25.41,0-50.81A6.11,6.11,0,0,1,27.6,6.38H49.78a6.11,6.11,0,0,1,6.29,6.3C56.08,15.32,56.07,18,56.07,20.66ZM54,45.24H43.16c-1.09,0-1.41-.32-1.41-1.41V22.1c0-1.09.32-1.41,1.4-1.41H54V16.64H23.38v38.8H54ZM23.33,57.54c0,2,0,4,0,6a4.07,4.07,0,0,0,4.19,4.2q11.16,0,22.31,0A4.07,4.07,0,0,0,54,63.53c0-1.83,0-3.66,0-5.5a4.22,4.22,0,0,0,0-.49ZM43.84,22.77v16.3H66.26a1.6,1.6,0,0,0,0-.27c0-2.28,0-4.56,0-6.84a.92.92,0,0,0-.39-.62,10.2,10.2,0,0,1-4.5-6.64c-.13-.63-.18-1.29-.26-1.93h-2V31.6c0,.55-.07,1-.63,1.28s-1-.06-1.35-.45l-2.11-2.14-2.16,2.19a1.1,1.1,0,0,1-1.3.4A1.14,1.14,0,0,1,51,31.67q0-3.93,0-7.86v-1Zm27.57,8.15a8.18,8.18,0,1,0-8.18-8.18A8.21,8.21,0,0,0,71.41,30.92ZM23.29,14.51H54c0-.74,0-1.44,0-2.14a4,4,0,0,0-4-3.94q-11.34,0-22.68,0a3.94,3.94,0,0,0-3.89,3.25A23.67,23.67,0,0,0,23.29,14.51ZM43.82,43.15H66.25v-2H43.82ZM57.05,29.51V22.77h-4v6.55l.14.09c.16-.2.31-.41.48-.6a7.93,7.93,0,0,1,.58-.58,1,1,0,0,1,1.58,0C56.22,28.58,56.56,29,57.05,29.51Z"/><path class="cls-1" d="M84.71,57.82a6.72,6.72,0,0,1-1.17,3.67c-1.33,1.92-2.69,3.82-4.06,5.72a1,1,0,0,1-1.8,0c-1.37-1.89-2.77-3.77-4.06-5.72a6.47,6.47,0,0,1,.64-8.27,6,6,0,0,1,6.58-1.39A6.35,6.35,0,0,1,84.71,57.82ZM78.58,65c1.19-1.7,2.34-3.25,3.38-4.88a5.21,5.21,0,0,0,.65-1.91,4.14,4.14,0,0,0-2.31-4.38,3.92,3.92,0,0,0-4.62.88,4.31,4.31,0,0,0-.46,5.47C76.24,61.79,77.4,63.31,78.58,65Z"/><path class="cls-1" d="M57.14,49.36h2v2h-2Z"/><path class="cls-1" d="M63.19,51.35H61.24v-2h1.95Z"/><path class="cls-1" d="M61.23,53.44h2v2h-2Z"/><path class="cls-1" d="M61.22,57.54h2v2h-2Z"/><path class="cls-1" d="M61.23,61.63h2v2h-2Z"/><path class="cls-1" d="M61.23,65.72h2v2h-2Z"/><path class="cls-1" d="M67.3,65.73v2h-2v-2Z"/><path class="cls-1" d="M71.37,67.71h-2v-2h2Z"/><path class="cls-1" d="M75.46,67.72h-2v-2h2Z"/><path class="cls-2" d="M71.41,30.92a8.18,8.18,0,1,1,8.19-8.16A8.21,8.21,0,0,1,71.41,30.92Zm-3.19-7.86-1.63,1.49c.62.6,1.23,1.17,1.82,1.75.74.72,1.19.72,1.94,0l5.47-5.46a2.87,2.87,0,0,0,.26-.29L74.7,18.94l-5.45,5.47Z"/><path class="cls-2" d="M57.05,29.51c-.49-.52-.83-.93-1.22-1.29a1,1,0,0,0-1.58,0,7.93,7.93,0,0,0-.58.58c-.17.19-.32.4-.48.6l-.14-.09V22.77h4Z"/><path class="cls-1" d="M25.38,29.2a6.15,6.15,0,1,1,12.21.66,7.74,7.74,0,0,1-1.37,3.4l-3.71,5.19c-.64.89-1.35.88-2,0l-3.71-5.19A7.31,7.31,0,0,1,25.38,29.2Zm6.13,7.2c1.26-1.83,2.43-3.53,3.57-5.23a3.42,3.42,0,0,0,.34-.89,4.19,4.19,0,0,0-1.56-4.71,3.89,3.89,0,0,0-4.43-.18A4.17,4.17,0,0,0,27.55,30a3.28,3.28,0,0,0,.36,1.08C29.06,32.81,30.25,34.54,31.51,36.4Z"/><path class="cls-1" d="M38.71,51.34v-2h2v2Z"/><path class="cls-1" d="M44.8,49.37v2h-2v-2Z"/><path class="cls-1" d="M48.86,51.35h-2v-2h2Z"/><path class="cls-1" d="M53,51.35H51v-2h2Z"/><path class="cls-1" d="M30.54,41.17h2v2h-2Z"/><path class="cls-1" d="M30.52,47.24v-2h2v2Z"/><path class="cls-1" d="M32.51,51.35h-2v-2h2Z"/><path class="cls-1" d="M36.59,51.36h-2v-2h2Z"/><path class="cls-1" d="M38.7,65.69a3.07,3.07,0,1,1,3-3A3.08,3.08,0,0,1,38.7,65.69Zm1-3.09a1,1,0,1,0-2,.06,1,1,0,0,0,2-.06Z"/><path class="cls-3" d="M68.22,23.06l1,1.35,5.45-5.47,1.38,1.58a2.87,2.87,0,0,1-.26.29l-5.47,5.46c-.75.75-1.2.75-1.94,0-.59-.58-1.2-1.15-1.82-1.75Z"/><path class="cls-1" d="M35.64,12.46v-2h6.08v2Z"/><path class="cls-2" d="M31.51,36.4c-1.26-1.86-2.45-3.59-3.6-5.34A3.28,3.28,0,0,1,27.55,30a4.17,4.17,0,0,1,1.88-4.59,3.89,3.89,0,0,1,4.43.18,4.19,4.19,0,0,1,1.56,4.71,3.42,3.42,0,0,1-.34.89C33.94,32.87,32.77,34.57,31.51,36.4Z"/><path class="cls-2" d="M39.7,62.6a1,1,0,0,1-2,.06,1,1,0,1,1,2-.06Z"/></svg>