<?xml version="1.0" encoding="utf-8"?>
<!-- Generator: Adobe Illustrator 24.3.0, SVG Export Plug-In . SVG Version: 6.00 Build 0)  -->
<svg version="1.1" id="Layer_1" xmlns="http://www.w3.org/2000/svg" xmlns:xlink="http://www.w3.org/1999/xlink" x="0px" y="0px"
	 viewBox="0 0 106 112" style="enable-background:new 0 0 106 112;" xml:space="preserve">
<style type="text/css">
	.st0{fill:#38AF4A;}
	.st1{fill:#515050;}
	.st2{fill:#EC1B32;}
	.st3{fill:#FFFFFF;}
</style>
<path class="st1" d="M18.8,33.4c0.6-1.1,0.6-2.4,0.9-3.6C22.8,16.8,35,7,48.3,6.9c1.8,0,2,0.1,2,2c0,1.2,0,2.5,0,3.7
	c0,0.8-0.3,1.4-1.1,1.4c-0.9,0-1.2-0.6-1.2-1.5c0-0.7-0.1-1.4,0-2.2c0.1-1.1-0.4-1.3-1.3-1.2c-3.3,0.4-6.4,1.2-9.4,2.6
	c-0.8,0.4-1.1,0.8-0.5,1.6c0.4,0.5,0.7,1.2,1,1.7c0.4,0.7,0.7,1.5-0.2,2c-0.9,0.5-1.4-0.2-1.8-0.9c-0.3-0.6-0.8-1.2-1.1-1.9
	c-0.3-0.7-0.7-0.7-1.3-0.3c-2.9,2-5.3,4.4-7.3,7.3c-0.5,0.7-0.3,1,0.3,1.3c0.7,0.4,1.4,0.8,2.1,1.2c0.7,0.4,1,1,0.6,1.7
	c-0.4,0.7-1,0.8-1.7,0.4c-0.6-0.3-1.2-0.6-1.7-1c-0.9-0.7-1.4-0.6-1.9,0.5c-1.3,3.1-2.2,6.3-2.5,9.7c-0.1,0.6,0.1,0.9,0.7,0.9
	c0.9,0,1.7,0,2.6,0c0.8,0,1.5,0.3,1.4,1.2c0,0.8-0.6,1.1-1.4,1.1c-0.9,0-1.7,0-2.6,0c-0.6,0-0.8,0.1-0.8,0.8c0.3,3.6,1.2,7,2.7,10.2
	c0.4,0.8,0.7,0.7,1.3,0.3c0.7-0.5,1.5-0.9,2.2-1.3c0.7-0.4,1.2-0.3,1.6,0.3c0.4,0.6,0.2,1.2-0.4,1.6c-0.5,0.3-1.1,0.6-1.6,0.9
	c-1.6,0.9-1.6,0.9-0.5,2.4c1.9,2.5,4.1,4.7,6.7,6.5c0.7,0.5,1.1,0.4,1.4-0.3c0.3-0.6,0.7-1.2,1.1-1.9c0.4-0.7,0.9-1.3,1.8-0.8
	c0.8,0.5,0.6,1.2,0.2,1.9c-0.4,0.6-0.7,1.3-1.1,1.9c-0.6,0.8-0.3,1.1,0.5,1.5c3.1,1.4,6.3,2.3,9.7,2.6c0.9,0.1,1.2-0.2,1.1-1.1
	c-0.1-0.8,0-1.6,0-2.4c0-0.8,0.4-1.3,1.3-1.3c0.7,0,1.1,0.5,1.1,1.3c0,1.4,0,2.8,0,4.2c0,1.2-0.5,1.7-1.7,1.7
	c-6-0.1-11.5-1.8-16.5-5.2c-6.9-4.8-11.2-11.3-12.8-19.6c-0.1-0.5,0.1-1.1-0.5-1.4C18.8,38.6,18.8,36,18.8,33.4z"/>
<path class="st0" d="M57,57.3c1.9,0,3.8,0,5.6,0c0.8,0,1.6,0.1,1.6,1.2c0,1-0.7,1.1-1.5,1.1c-2.3,0-4.5,0-6.8,0
	c-1.3,0-1.7-0.6-1.6-1.8c0.2-1.5,1-2.8,2.3-3.7c1.3-1,2.7-1.8,4-2.8c1.1-0.8,1.3-2,0.8-3.2c-0.5-1.2-1.6-1.5-2.7-1.3
	c-1.2,0.2-1.9,1-2,2.3c0,0.8-0.3,1.5-1.2,1.4c-1-0.1-1.1-0.9-1.1-1.7c0.1-2,1.7-3.9,3.7-4.3c2.3-0.5,4.5,0.5,5.5,2.5
	c1,2,0.5,4.6-1.3,6c-1.3,1-2.7,1.9-4,2.8C57.7,56.1,57.2,56.5,57,57.3z"/>
<path class="st0" d="M72.6,49.6c0,0.9,0,1.7,0,2.6c-0.1,1.1-0.1,2,1.4,2c0.5,0,0.8,0.5,0.8,1c0,0.6-0.3,1.1-0.9,1.1
	c-1.2,0-1.4,0.6-1.3,1.6c0.1,0.8-0.1,1.7-1.1,1.7c-1.1,0-1.3-0.9-1.2-1.7c0.2-1.3-0.4-1.5-1.6-1.5c-1.3,0.1-2.6,0.1-3.9,0
	c-1.3-0.1-1.8-0.9-1-2c2.2-3.1,4.4-6.2,6.6-9.3c0.4-0.5,0.8-0.8,1.5-0.6c0.7,0.2,0.8,0.8,0.8,1.4C72.6,47.1,72.6,48.3,72.6,49.6
	C72.6,49.6,72.6,49.6,72.6,49.6z M66.8,54.1c1.1,0,2,0,2.8,0c0.4,0,0.7-0.1,0.7-0.5c0-1.3,0-2.6,0-3.9c-0.1,0-0.2,0-0.3-0.1
	C68.9,51,68,52.4,66.8,54.1z"/>
<path class="st0" d="M50.3,29.9c0,2.3,0,4.5,0,6.8c0,0.8-0.3,1.4-0.9,1.8c-2.5,1.8-5,3.5-7.5,5.3c-0.7,0.5-1.4,0.7-1.9-0.1
	c-0.6-0.8-0.1-1.3,0.6-1.8c2.2-1.5,4.3-3.1,6.5-4.6c0.8-0.5,1-1.1,1-2c0-3.8,0-7.7,0-11.5c0-0.3,0-0.7,0-1c0-0.8,0.4-1.3,1.2-1.3
	c0.8,0,1.1,0.6,1.1,1.4C50.3,25.2,50.3,27.5,50.3,29.9z"/>
<path class="st0" d="M89,47c-1.8,0-3.4,0-4.9,0c-0.8,0-1.6-0.1-1.6-1.1c0-1.1,0.7-1.2,1.6-1.2c2.3,0,4.6,0,6.9,0
	c0.6,0,1.2,0,1.5,0.6c0.3,0.6,0,1.1-0.4,1.6c-2.6,3.4-4.7,7.1-5.3,11.5c-0.1,0.8-0.5,1.4-1.5,1.2c-0.8-0.2-0.9-0.8-0.8-1.6
	c0.5-3.3,1.7-6.4,3.5-9.2C88.3,48.2,88.6,47.7,89,47z"/>
<path class="st1" d="M82,45.5c-0.4,0.9-0.7,1.9-1.1,2.8c-1.3,3.3-2.6,6.6-3.9,9.9c-0.3,0.8-0.6,1.7-1.7,1.3
	c-1.1-0.4-0.8-1.3-0.4-2.2c1.6-4.1,3.3-8.2,4.9-12.3c0.3-0.7,0.7-1.3,1.6-1C82,44.3,82.2,44.8,82,45.5z"/>
<path class="st0" d="M78.4,38.4c-0.8-0.1-1.3-0.5-1.2-1.2c0-0.7,0.5-1.1,1.2-1.1c0.7,0,1.1,0.5,1.1,1.1C79.5,37.9,79,38.3,78.4,38.4
	z"/>
<path class="st0" d="M64.9,12c-0.2,0.7-0.5,1.2-1.3,1.1c-0.7-0.1-1.1-0.5-1-1.3c0.1-0.7,0.5-1,1.1-1C64.5,10.8,64.9,11.3,64.9,12z"
	/>
<path class="st0" d="M75.6,22.6c-0.1,0.7-0.5,1.2-1.2,1.1c-0.7,0-1.1-0.5-1.1-1.2c0-0.7,0.5-1.1,1.1-1.1
	C75.1,21.4,75.5,21.9,75.6,22.6z"/>
<path class="st0" d="M56.6,7.8c0.7,0.1,1.2,0.4,1.2,1.2c0,0.6-0.4,1.1-1.1,1.1c-0.7,0-1.1-0.3-1.2-1C55.5,8.4,55.9,8,56.6,7.8z"/>
<path class="st0" d="M69.8,17.7c-0.7-0.1-1.2-0.5-1.1-1.3c0.1-0.7,0.5-1.1,1.2-1c0.6,0.1,1.1,0.4,1.1,1.1
	C70.9,17.2,70.5,17.7,69.8,17.7z"/>
<path class="st0" d="M76.2,29.8c0-0.8,0.4-1.2,1-1.2c0.7,0,1.2,0.3,1.2,1.1c0,0.7-0.4,1.1-1,1.2C76.7,30.9,76.3,30.4,76.2,29.8z"/>
<g>
	<g>
		<path class="st1" d="M11.3,85.5c0-3,1.9-4.8,4.3-4.8c1.3,0,2.2,0.6,2.8,1.2l-0.9,1c-0.5-0.4-1-0.8-1.8-0.8c-1.6,0-2.7,1.3-2.7,3.3
			c0,2.1,1,3.4,2.8,3.4c0.5,0,1-0.1,1.3-0.4v-2h-1.7v-1.3h3.2v4c-0.6,0.6-1.7,1.1-2.9,1.1C13.1,90.3,11.3,88.6,11.3,85.5z"/>
		<path class="st1" d="M20,86.7c0-2.2,1.6-3.6,3.2-3.6c1.9,0,2.8,1.3,2.8,3.3c0,0.3,0,0.6-0.1,0.8h-4.4c0.1,1.2,0.9,1.9,2,1.9
			c0.6,0,1.1-0.2,1.6-0.5l0.5,1c-0.7,0.4-1.5,0.7-2.4,0.7C21.4,90.3,20,88.9,20,86.7z M24.6,86c0-1.1-0.5-1.7-1.4-1.7
			c-0.8,0-1.5,0.6-1.6,1.7H24.6z"/>
		<path class="st1" d="M27.7,87.8v-3.3h-1v-1.2l1.1-0.1l0.2-1.9h1.3v1.9h1.8v1.3h-1.8v3.3c0,0.8,0.3,1.2,1,1.2
			c0.2,0,0.5-0.1,0.7-0.2l0.3,1.2c-0.4,0.1-0.9,0.3-1.4,0.3C28.3,90.3,27.7,89.3,27.7,87.8z"/>
		<path class="st1" d="M35.5,80.9H41v1.4h-3.9v2.6h3.3v1.4h-3.3v3.8h-1.6V80.9z"/>
		<path class="st1" d="M42.5,88.3v-8.1h1.6v8.2c0,0.4,0.2,0.5,0.3,0.5c0.1,0,0.1,0,0.3,0l0.2,1.2c-0.2,0.1-0.5,0.1-0.9,0.1
			C42.9,90.3,42.5,89.5,42.5,88.3z"/>
		<path class="st1" d="M45.8,86.7c0-2.3,1.6-3.6,3.3-3.6s3.3,1.3,3.3,3.6c0,2.3-1.6,3.6-3.3,3.6S45.8,88.9,45.8,86.7z M50.7,86.7
			c0-1.4-0.6-2.3-1.6-2.3s-1.6,0.9-1.6,2.3c0,1.4,0.6,2.3,1.6,2.3S50.7,88,50.7,86.7z"/>
		<path class="st1" d="M53.5,86.7c0-2.3,1.6-3.6,3.3-3.6s3.3,1.3,3.3,3.6c0,2.3-1.6,3.6-3.3,3.6S53.5,88.9,53.5,86.7z M58.4,86.7
			c0-1.4-0.6-2.3-1.6-2.3s-1.6,0.9-1.6,2.3c0,1.4,0.6,2.3,1.6,2.3S58.4,88,58.4,86.7z"/>
		<path class="st1" d="M61.7,83.2H63l0.1,1.2h0c0.5-0.9,1.2-1.4,2-1.4c0.3,0,0.6,0,0.8,0.1l-0.3,1.4c-0.2-0.1-0.4-0.1-0.7-0.1
			c-0.5,0-1.2,0.4-1.6,1.4v4.2h-1.6V83.2z"/>
		<path class="st1" d="M69.7,83.2H71l0.1,0.7h0c0.6-0.5,1.3-0.9,2.1-0.9c1.7,0,2.7,1.4,2.7,3.5c0,2.4-1.4,3.7-2.9,3.7
			c-0.6,0-1.2-0.3-1.8-0.8l0,1.1v2.2h-1.6V83.2z M74.3,86.6c0-1.4-0.4-2.2-1.5-2.2c-0.5,0-1,0.3-1.5,0.8v3.2c0.5,0.4,1,0.6,1.4,0.6
			C73.6,88.9,74.3,88.1,74.3,86.6z"/>
		<path class="st1" d="M77.6,88.3v-8.1h1.6v8.2c0,0.4,0.2,0.5,0.3,0.5c0.1,0,0.1,0,0.3,0l0.2,1.2c-0.2,0.1-0.5,0.1-0.9,0.1
			C78,90.3,77.6,89.5,77.6,88.3z"/>
		<path class="st1" d="M81,88.2c0-1.5,1.2-2.2,4-2.5c0-0.7-0.3-1.4-1.2-1.4c-0.7,0-1.3,0.3-1.9,0.7l-0.6-1.1C82,83.5,83,83,84.1,83
			c1.7,0,2.6,1.1,2.6,3v4.1h-1.3l-0.1-0.8h0c-0.6,0.5-1.3,0.9-2.1,0.9C81.8,90.3,81,89.4,81,88.2z M85,88.2v-1.5
			c-1.9,0.2-2.5,0.7-2.5,1.4c0,0.6,0.4,0.9,1,0.9C84.1,89,84.5,88.7,85,88.2z"/>
		<path class="st1" d="M88.6,83.2h1.3l0.1,0.9h0c0.6-0.6,1.3-1.1,2.3-1.1c1.5,0,2.1,1,2.1,2.7v4.3h-1.6V86c0-1.1-0.3-1.6-1.1-1.6
			c-0.6,0-1,0.3-1.6,0.9v4.8h-1.6V83.2z"/>
		<path class="st1" d="M33.7,97.9c0-0.5,0.4-0.9,1-0.9s1,0.4,1,0.9c0,0.5-0.4,0.9-1,0.9S33.7,98.4,33.7,97.9z M33.8,100h1.6v6.9
			h-1.6V100z"/>
		<path class="st1" d="M37.5,100h1.3l0.1,0.9h0c0.6-0.6,1.3-1.1,2.3-1.1c1.5,0,2.1,1,2.1,2.7v4.3h-1.6v-4.1c0-1.1-0.3-1.6-1.1-1.6
			c-0.6,0-1,0.3-1.6,0.9v4.8h-1.6V100z"/>
		<path class="st1" d="M47.7,106c2.5-2.4,4-4,4-5.3c0-0.9-0.5-1.5-1.5-1.5c-0.7,0-1.3,0.5-1.7,1l-0.9-0.9c0.8-0.9,1.6-1.4,2.8-1.4
			c1.7,0,2.8,1.1,2.8,2.7c0,1.6-1.5,3.2-3.2,5.1c0.5,0,1.1-0.1,1.5-0.1h2.2v1.4h-6V106z"/>
		<path class="st1" d="M58.5,101.3c0-0.5,0-1.3,0.1-1.9h-0.1c-0.2,0.5-0.5,0.9-0.7,1.4l-1.6,2.5h5v1.2h-6.6v-1.1l3.5-5.5H60v8.9
			h-1.5V101.3z"/>
		<path class="st1" d="M62.6,97.7h1.6v3.7H68v-3.7h1.6v9.2H68v-4.1h-3.7v4.1h-1.6V97.7z"/>
		<path class="st1" d="M71.8,100h1.3l0.1,1.2h0c0.5-0.9,1.2-1.4,2-1.4c0.3,0,0.6,0,0.8,0.1l-0.3,1.4c-0.2-0.1-0.4-0.1-0.7-0.1
			c-0.5,0-1.2,0.4-1.6,1.4v4.2h-1.6V100z"/>
	</g>
</g>
</svg>
